<svg xmlns="http://www.w3.org/2000/svg" width="200" height="200" fill="none"><path fill="#000" d="M0 0h200v200H0z"/><g clip-path="url(#a)"><path fill="#fff" fill-rule="evenodd" d="M144.908 85.689c0 25.111-20.26 45.691-44.965 45.691-24.706 0-44.965-20.586-44.965-45.691C54.978 60.586 75.238 40 99.943 40c24.705 0 44.965 20.586 44.965 45.689zm-13.834 0c0-17.572-13.84-31.632-31.131-31.632-17.299 0-31.132 14.06-31.132 31.632 0 17.574 13.833 31.634 31.132 31.634 16.801 0 30.635-14.06 31.131-31.634zm8.889 41.678 6.922 12.552L99.943 160 53 139.919l6.917-12.552 40.026 17.568 40.02-17.568z" clip-rule="evenodd"/></g><defs><clipPath id="a"><path fill="#fff" d="M53 40h93.923v120H53z"/></clipPath></defs></svg>