<svg xmlns="http://www.w3.org/2000/svg" width="200" height="200" fill="none"><path fill="#001E2B" d="M0 0h200v200H0z"/><g clip-path="url(#a)"><path fill="#00ED64" d="M110.857 51.386c-5.246-6.204-9.763-12.505-10.686-13.813a.236.236 0 0 0-.34 0c-.923 1.308-5.44 7.61-10.687 13.813-45.03 57.241 7.092 95.871 7.092 95.871l.437.291c.389 5.962 1.36 14.541 1.36 14.541h3.886s.972-8.531 1.361-14.541l.437-.339c.048 0 52.171-38.582 7.14-95.823zm-10.88 94.999s-2.332-1.988-2.964-3.006v-.096l2.818-62.33c0-.195.291-.195.291 0l2.817 62.33v.096c-.631 1.018-2.963 3.006-2.963 3.006z"/></g><defs><clipPath id="a"><path fill="#fff" d="M70.817 37.5h58.366v125H70.817z"/></clipPath></defs></svg>