<svg xmlns="http://www.w3.org/2000/svg" xmlns:xlink="http://www.w3.org/1999/xlink" width="100" zoomAndPan="magnify" viewBox="0 0 75 74.999997" height="100" preserveAspectRatio="xMidYMid meet" version="1.0"><rect x="-7.5" width="90" fill="#ffffff" y="-7.5" height="89.999996" fill-opacity="1"/><rect x="-7.5" width="90" fill="#7ed957" y="-7.5" height="89.999996" fill-opacity="1"/><path fill="#000000" d="M 31.199219 30.285156 C 31.199219 30.34375 31.785156 31.453125 32.488281 32.746094 L 33.765625 35.085938 L 31.785156 37.53125 C 30.703125 38.878906 29.699219 40.09375 29.578125 40.246094 C 29.355469 40.5 29.535156 40.5 33.300781 40.46875 L 37.246094 40.425781 L 37.664062 39.195312 L 38.070312 37.964844 L 36.433594 37.921875 L 34.800781 37.875 L 35.773438 36.675781 C 36.316406 36.015625 36.75 35.414062 36.75 35.355469 C 36.75 35.296875 36.480469 34.769531 36.148438 34.183594 C 35.820312 33.601562 35.550781 33.089844 35.550781 33.058594 C 35.550781 33.03125 36.871094 33 38.476562 33 C 40.078125 33 41.398438 33.03125 41.398438 33.058594 C 41.398438 33.105469 40.394531 36.074219 39.148438 39.660156 C 37.921875 43.246094 36.898438 46.246094 36.898438 46.335938 C 36.898438 46.441406 37.425781 46.5 38.398438 46.5 C 39.675781 46.5 39.914062 46.453125 40.035156 46.230469 C 40.109375 46.078125 40.558594 44.851562 41.023438 43.5 C 41.488281 42.136719 42.71875 38.609375 43.738281 35.65625 C 44.761719 32.683594 45.601562 30.238281 45.601562 30.210938 C 45.601562 30.179688 42.359375 30.148438 38.398438 30.148438 C 34.441406 30.148438 31.199219 30.210938 31.199219 30.285156 Z M 31.199219 30.285156 " fill-opacity="1" fill-rule="nonzero"/></svg>