<svg xmlns="http://www.w3.org/2000/svg" width="200" height="200" fill="none"><path fill="#F22F46" d="M0 0h200v200H0z"/><g fill="#fff" clip-path="url(#a)"><path d="M99.929 147.889c-26.41 0-47.818-21.409-47.818-47.817 0-26.41 21.409-47.818 47.818-47.818 26.408 0 47.817 21.409 47.817 47.818 0 26.408-21.409 47.817-47.817 47.817zm0-112.746C64.069 35.143 35 64.213 35 100.072S64.07 165 99.929 165s64.928-29.069 64.928-64.928c0-35.86-29.069-64.93-64.928-64.93z"/><path d="M102.598 83.901c0-7.456 6.045-13.5 13.5-13.5 7.457 0 13.501 6.044 13.501 13.5s-6.044 13.5-13.501 13.5c-7.455 0-13.5-6.044-13.5-13.5zm0 32.34c0-7.455 6.045-13.5 13.5-13.5 7.457 0 13.501 6.045 13.501 13.5 0 7.457-6.044 13.501-13.501 13.501-7.455 0-13.5-6.044-13.5-13.501zm-32.34 0c0-7.455 6.045-13.5 13.5-13.5 7.457 0 13.501 6.045 13.501 13.5 0 7.457-6.044 13.501-13.5 13.501s-13.501-6.044-13.501-13.501zm0-32.339c0-7.457 6.045-13.501 13.5-13.501 7.457 0 13.501 6.044 13.501 13.5 0 7.457-6.044 13.501-13.5 13.501s-13.501-6.044-13.501-13.5z"/></g><defs><clipPath id="a"><path fill="#fff" d="M35 35h130v130H35z"/></clipPath></defs></svg>