<svg xmlns="http://www.w3.org/2000/svg" width="200" height="200" fill="none"><path fill="#F90" d="M0 0h200v200H0z"/><g fill="#fff" clip-path="url(#a)"><path d="M164.186 86.847a27.022 27.022 0 0 0-15.232 4.417c-1.249.944-1.249 2.224.305 2.224 5.026-.64 16.297-2.224 18.491.61 2.193 2.832-2.194 13.281-4.082 18.277-.61 1.584.639 1.889 1.888.944 8.469-7.28 10.663-22.116 9.139-24.005-1.096-1.523-5.513-2.467-10.509-2.467z"/><path d="M25.914 90.29a1.097 1.097 0 0 0-.67.395 1.157 1.157 0 0 0 .183 1.584A118.819 118.819 0 0 0 56.377 110a119.931 119.931 0 0 0 35.124 8.103 114.668 114.668 0 0 0 36.038-3.29 99.681 99.681 0 0 0 32.869-14.775 2.251 2.251 0 0 0 .737-3.027 2.25 2.25 0 0 0-2.991-.872 150.648 150.648 0 0 1-32.382 10.266 140.138 140.138 0 0 1-33.51 2.803 144.51 144.51 0 0 1-33.509-5.819 175.326 175.326 0 0 1-32.017-12.946 1.127 1.127 0 0 0-.822-.153z"/></g><defs><clipPath id="a"><path fill="#fff" d="M25 86.847h150v31.529H25z"/></clipPath></defs></svg>