<svg xmlns="http://www.w3.org/2000/svg" width="200" height="200" fill="none"><path fill="#151515" d="M0 0h200v200H0z"/><path fill="#E00" d="M122.801 108.008c9.1 0 22.277-1.893 22.277-12.74 0-.83-.073-1.658-.218-2.475l-5.387-23.589c-1.238-5.169-2.33-7.571-11.43-12.085-7.062-3.64-22.424-9.537-27.01-9.537-4.296 0-5.533 5.46-10.557 5.46-4.877 0-8.445-4.077-13.031-4.077-4.369 0-7.208 2.985-9.392 9.1 0 0-6.115 17.255-6.916 19.803-.12.45-.17.917-.146 1.383-.073 6.698 26.355 28.685 61.81 28.757zm23.661-8.3c1.237 5.971 1.237 6.626 1.237 7.354 0 10.192-11.43 15.871-26.5 15.871-34.072 0-63.848-19.948-63.848-33.125a13.36 13.36 0 0 1 1.092-5.315c-12.23.582-28.102 2.767-28.102 16.745 0 22.933 54.311 51.18 97.265 51.18 32.979 0 41.279-14.925 41.279-26.719 0-9.246-8.008-19.729-22.423-25.99z"/><path fill="#000" d="M146.462 99.709c1.237 5.97 1.237 6.625 1.237 7.353 0 10.192-11.43 15.871-26.5 15.871-34.072 0-63.848-19.948-63.848-33.125a13.358 13.358 0 0 1 1.092-5.315l2.694-6.625c-.12.45-.17.917-.146 1.383 0 6.698 26.427 28.685 61.81 28.685 9.1 0 22.277-1.893 22.277-12.741 0-.83-.073-1.658-.218-2.475l1.602 6.989z"/></svg>