<svg xmlns="http://www.w3.org/2000/svg" width="200" height="200" fill="none"><path fill="#0875E1" d="M0 0h200v200H0z"/><g clip-path="url(#a)"><path fill="#F69F1A" d="M96.762 32.144c12.261-.752 24.718 2.62 34.937 9.435 9.266 6.119 16.709 14.98 21.026 25.216.673 1.834.439 4-.712 5.594-1.25 1.821-3.56 2.8-5.739 2.493-2.038-.258-3.887-1.646-4.686-3.539a45.079 45.079 0 0 0-8.313-12.885c-6.139-6.69-14.339-11.486-23.213-13.443-6.845-1.422-13.997-1.373-20.815.18-8.349 1.967-16.083 6.45-21.935 12.724-3.169 3.423-5.96 7.238-7.921 11.486-.59 1.166-.922 2.489-1.82 3.474-1.66 1.962-4.64 2.608-6.971 1.536-2.217-.949-3.703-3.34-3.565-5.75.02-1.47.789-2.762 1.375-4.064 4.699-9.882 12.317-18.342 21.655-24.047a57.483 57.483 0 0 1 26.697-8.41z"/><path fill="#fff" d="M48.711 84.543c.61-.85 1.592-1.456 2.66-1.423 2.994.001 5.99-.055 8.981.033 1.586.014 2.96 1.35 3.122 2.91 2.959 12.204 5.932 24.403 8.91 36.604.922 3.994 2.059 7.946 2.702 12 .639 3.608.761 7.282 1.344 10.899a136.31 136.31 0 0 1 2.118-11.881c.724-3.281 1.673-6.504 2.523-9.754 3.402-12.684 6.809-25.368 10.204-38.055.371-1.53 1.831-2.713 3.411-2.74 3.3-.053 6.605-.023 9.906-.016.666.004 1.341-.062 1.997.08 1.214.293 2.282 1.156 2.794 2.299.235.532.355 1.104.512 1.663 2.29 8.337 4.556 16.681 6.828 25.021.752 2.701 1.438 5.422 2.257 8.103a194.847 194.847 0 0 1 4.316 17.614c.537 2.557.759 5.166 1.306 7.721 1.13-8.45 2.62-16.852 4.471-25.174.819-3.798 1.834-7.55 2.651-11.349 1.735-7.759 3.439-15.528 5.199-23.28.262-1.142 1.134-2.106 2.231-2.502.637-.255 1.335-.2 2.006-.198 2.627.007 5.254-.05 7.878.031 1.129-.001 2.184.887 2.352 2.004.138.798-.2 1.553-.393 2.308-5.59 20.637-11.188 41.272-16.757 61.914-.427 1.425-1.83 2.474-3.315 2.504-4.568.17-9.139.004-13.708.077-1.318-.05-2.516-1.047-2.838-2.321-3.412-12.529-6.766-25.073-10.14-37.611-.774-2.924-1.634-5.828-2.238-8.792-.812-3.866-1.417-7.78-1.732-11.719-.54 4.605-1.282 9.19-2.326 13.707a22349.652 22349.652 0 0 1-11.653 43.373c-.193.758-.347 1.587-.934 2.156-.988.985-2.463 1.234-3.803 1.232-4.272-.139-8.55.094-12.82-.102a2.936 2.936 0 0 1-2.326-1.302c-.38-.56-.462-1.246-.647-1.878-5.548-20.206-11.08-40.416-16.617-60.623-.355-1.143-.403-2.346-.432-3.533z"/></g><defs><clipPath id="a"><path fill="#fff" d="M47 32h106.151v120H47z"/></clipPath></defs></svg>