<svg xmlns="http://www.w3.org/2000/svg" width="200" height="200" fill="none"><path fill="#24292F" d="M0 0h200v200H0z"/><g clip-path="url(#a)"><path fill="#fff" fill-rule="evenodd" d="M100.156 35C63.574 35 34 64.792 34 101.648c0 29.461 18.949 54.4 45.236 63.226 3.286.664 4.49-1.434 4.49-3.198 0-1.546-.108-6.842-.108-12.36-18.403 3.973-22.235-7.945-22.235-7.945-2.958-7.724-7.34-9.709-7.34-9.709-6.023-4.083.439-4.083.439-4.083 6.681.441 10.187 6.841 10.187 6.841 5.914 10.151 15.443 7.283 19.277 5.517.547-4.303 2.3-7.283 4.162-8.937-14.677-1.546-30.12-7.283-30.12-32.884 0-7.282 2.627-13.24 6.79-17.875-.657-1.654-2.958-8.497.658-17.655 0 0 5.586-1.766 18.18 6.841a63.602 63.602 0 0 1 16.54-2.207c5.586 0 11.281.773 16.539 2.207 12.596-8.607 18.182-6.841 18.182-6.841 3.616 9.158 1.314 16 .657 17.655 4.272 4.634 6.791 10.593 6.791 17.875 0 25.601-15.443 31.227-30.23 32.884 2.41 2.096 4.49 6.068 4.49 12.358 0 8.937-.108 16.11-.108 18.316 0 1.766 1.205 3.864 4.49 3.201 26.287-8.829 45.236-33.766 45.236-63.227C166.312 64.792 136.63 35 100.156 35z" clip-rule="evenodd"/></g><defs><clipPath id="a"><path fill="#fff" d="M34 35h132.708v130H34z"/></clipPath></defs></svg>