<svg xmlns="http://www.w3.org/2000/svg" width="200" height="200" fill="none"><g clip-path="url(#a)"><path fill="#32363E" d="M0 0h200v200H0z"/><path fill="#E00" d="m139.117 67.277-38.135 45.912-9.544-6.511 24.51-29.554v-9.847H102.41L77.54 97.21l-9.358-6.365 11.39-13.721v-9.847H66.02L45.835 91.602l-.591.714v14.886l62.342 42.43 45.011-54.316.159-.204V67.278h-13.639zm12.197 27.37-44.046 53.106-60.553-41.265v-12.54l58.78 40.055 45.819-55.219v15.862zM47.032 92.402l19.665-23.67H78.13V76.6L66.064 91.165l11.75 8.026 25.274-30.457h11.534v7.865l-25.317 30.37 11.952 8.142 38.524-46.377h11.534v7.778l-46.136 55.554-58.146-39.663z"/><path fill="#E00" d="M139.117 67.277V64h-1.513l-.972 1.17 2.485 2.107zm-38.135 45.912-1.815 2.716 2.422 1.652 1.878-2.262-2.485-2.106zm-9.544-6.511-2.487-2.105-2.31 2.787 2.982 2.034 1.815-2.716zm24.51-29.554 2.487 2.105.757-.914v-1.191h-3.244zm0-9.847h3.244V64h-3.244v3.277zm-13.538 0V64h-1.513l-.972 1.17 2.485 2.107zM77.54 97.21l-1.812 2.718 2.42 1.647 1.876-2.258-2.485-2.107zm-9.358-6.365-2.485-2.106-2.317 2.79 2.99 2.034 1.812-2.718zm11.39-13.721 2.486 2.106.758-.914v-1.192h-3.244zm0-9.847h3.244V64h-3.244v3.277zm-13.552 0V64h-1.514l-.972 1.172 2.486 2.105zM45.835 91.602l-2.486-2.105-.002.002 2.488 2.103zm-.591.714-2.488-2.103L42 92.316h3.244zm0 14.886H42v1.744l1.432.974 1.812-2.718zm62.342 42.43-1.813 2.718 2.424 1.65 1.876-2.264-2.487-2.104zm45.011-54.316 2.488 2.104.032-.039.031-.04-2.551-2.025zm.159-.203 2.551 2.024.693-.891v-1.133h-3.244zm0-27.836H156V64h-3.244v3.277zm-1.442 27.37 2.487 2.104.757-.913v-1.192h-3.244zm-44.046 53.106-1.814 2.717 2.424 1.652 1.877-2.264-2.487-2.105zm-60.553-41.265H43.47v1.743l1.43.974 1.814-2.717zm0-12.54 1.814-2.718-5.058 2.717h3.244zm58.78 40.055-1.814 2.717 2.423 1.651 1.877-2.262-2.486-2.106zm45.819-55.219h3.244v-9.01l-5.73 6.905 2.486 2.105zM47.032 92.404l-2.485-2.108.67 4.824 1.815-2.717zm19.665-23.67v-3.277h-1.512l-.972 1.17 2.484 2.107zm11.434 0h3.243v-3.277h-3.243v3.277zm0 7.865 2.487 2.104.756-.913V76.6h-3.243zM66.063 91.165l-2.488-2.103-2.307 2.784 2.978 2.034 1.817-2.715zm11.75 8.026-1.817 2.715 2.424 1.655 1.88-2.265-2.487-2.105zm25.274-30.457v-3.277h-1.513l-.972 1.171 2.485 2.106zm11.534 0h3.244v-3.277h-3.244v3.277zm0 7.865 2.482 2.112.762-.915v-1.197h-3.244zm-25.317 30.37-2.481-2.111-2.326 2.789 2.994 2.039 1.813-2.717zm11.952 8.142-1.813 2.718 2.421 1.649 1.877-2.26-2.485-2.107zm38.524-46.377v-3.277l-2.485 1.17 2.485 2.107zm11.534 0h3.244c0-1.81-1.452-3.277-3.244-3.277v3.277zm0 7.778 2.485 2.107.759-.914v-1.193h-3.244zm-46.136 55.554-1.815 2.716 2.422 1.652 1.878-2.262-2.485-2.106zm31.454-66.895-38.135 45.911 4.97 4.213 38.135-45.911-4.97-4.213zm-33.834 45.302-9.545-6.511-3.63 5.432 9.544 6.511 3.631-5.432zm-8.873-1.69 24.51-29.554-4.974-4.21-24.51 29.554 4.974 4.21zm25.267-31.66v-9.846h-6.488v9.847h6.488zM115.948 64H102.41v6.555h13.538V64zm-16.023 1.17-24.87 29.933 4.969 4.214 24.87-29.933-4.969-4.214zM79.351 94.492l-9.357-6.366-3.623 5.437 9.357 6.365 3.623-5.436zm-8.683-1.541 11.39-13.721-4.971-4.212-11.39 13.72 4.971 4.213zm12.148-15.827v-9.847h-6.488v9.847h6.488zM79.572 64H66.02v6.555h13.552V64zm-16.038 1.172L43.349 89.497l4.972 4.21 20.185-24.324-4.972-4.211zM43.347 89.499l-.591.714 4.976 4.206.591-.714-4.976-4.206zM42 92.316v14.886h6.488V92.316H42zm1.432 17.604 62.341 42.43 3.625-5.436-62.342-42.43-3.624 5.436zm66.641 41.816 45.012-54.316-4.975-4.207-45.012 54.315 4.975 4.208zm45.075-54.395.159-.204-5.102-4.05-.158.205 5.101 4.05zm.852-2.228V67.277h-6.488v27.836H156zM152.756 64h-13.639v6.555h13.639V64zm-3.928 28.542-44.046 53.106 4.973 4.21 44.046-53.107-4.973-4.21zm-39.745 52.494-60.554-41.265-3.628 5.434 60.553 41.265 3.629-5.434zm-59.124-38.548v-12.54H43.47v12.54h6.488zM44.9 96.664l58.78 40.056 3.628-5.434-58.78-40.056-3.628 5.434zm63.08 39.445 45.819-55.22-4.972-4.21-45.819 55.219 4.972 4.211zm40.089-57.325v15.862h6.488V78.784h-6.488zM49.516 94.51l19.666-23.669-4.97-4.214-19.665 23.67 4.97 4.213zm17.181-22.499h11.434v-6.554H66.697v6.554zm8.19-3.277v7.865h6.487v-7.865h-6.487zm.756 5.762L63.575 89.062l4.976 4.207 12.067-14.566-4.975-4.207zM64.246 93.88l11.75 8.026 3.634-5.43-11.75-8.026-3.634 5.43zm16.053 7.416 25.274-30.457-4.971-4.21-25.275 30.456 4.972 4.211zm22.788-29.285h11.534v-6.554h-11.534v6.554zm8.291-3.277v7.865h6.487v-7.865h-6.487zm.762 5.754-25.317 30.37 4.962 4.222 25.318-30.37-4.963-4.222zm-24.65 35.198 11.953 8.143 3.627-5.435-11.952-8.142-3.627 5.434zm16.251 7.532 38.524-46.377-4.97-4.214-38.524 46.378 4.97 4.213zm36.039-45.207h11.534v-6.554H139.78v6.554zm8.29-3.277v7.778h6.488v-7.778h-6.488zm.759 5.672-46.136 55.553 4.97 4.213 46.136-55.553-4.97-4.213zm-41.836 54.944L48.847 89.687l-3.63 5.433 58.146 39.662 3.63-5.432z"/></g><defs><clipPath id="a"><path fill="#fff" d="M0 0h200v200H0z"/></clipPath></defs></svg>