<svg xmlns="http://www.w3.org/2000/svg" width="200" height="200" fill="none"><path fill="#000" d="M0 0h200v200H0z"/><g clip-path="url(#a)"><mask id="b" width="186" height="50" x="7" y="75" maskUnits="userSpaceOnUse" style="mask-type:luminance"><path fill="#fff" d="M7.746 75.49h184.518v49.016H7.746V75.491z"/></mask><g mask="url(#b)"><path fill="#fff" d="M171.909 98.51v3.336h2.344v3.31c.008.296-.009.615-.059.87-.093.617-.68 1.668-2.344 1.668-1.654 0-2.23-1.051-2.33-1.668a5.67 5.67 0 0 1-.06-.87V94.702c0-.37.025-.775.103-1.08.114-.558.608-1.657 2.275-1.657 1.749 0 2.186 1.159 2.286 1.656.066.33.07.883.07.883v1.269h5.76v-.75s.026-.783-.044-1.514c-.433-4.291-3.968-5.649-8.022-5.649-4.061 0-7.524 1.37-8.029 5.649-.046.39-.115 1.095-.115 1.513v9.617c0 .419.013.743.091 1.509.376 4.172 3.992 5.651 8.037 5.651 4.07 0 7.662-1.479 8.044-5.651.068-.766.075-1.09.084-1.509V98.51h-8.091zm-39.72-10.034h-5.784v16.921c.009.295 0 .626-.051.869-.121.568-.602 1.661-2.198 1.661-1.576 0-2.07-1.093-2.181-1.661-.058-.243-.066-.574-.058-.869V88.476h-5.783v16.396c-.008.423.025 1.286.05 1.512.4 4.273 3.767 5.66 7.972 5.66 4.213 0 7.578-1.387 7.984-5.66.032-.226.074-1.089.049-1.512V88.476zm-53.152 0-2.886 17.879-2.883-17.88h-9.332l-.495 22.874h5.717l.155-21.175 3.933 21.175h5.8l3.937-21.175.155 21.175h5.732l-.512-22.873h-9.32zm-34.549 0-4.237 22.873h6.179l3.193-21.175 3.116 21.175h6.136l-4.22-22.873H44.488zm107.918 18.415-5.386-18.415h-8.488v22.635h5.615l-.326-19.005 5.785 19.005h8.14V88.476h-5.651l.311 18.415zm-51.938-12.462a3.074 3.074 0 0 1-.02-1.183c.164-.732.656-1.53 2.073-1.53 1.321 0 2.096.823 2.096 2.059v1.398h5.639V93.58c0-4.928-4.419-5.702-7.618-5.702-4.029 0-7.32 1.328-7.92 5.036-.159 1.01-.198 1.905.055 3.048.98 4.624 9.029 5.965 10.197 8.89.207.553.148 1.26.042 1.676-.175.761-.687 1.526-2.204 1.526-1.423 0-2.28-.818-2.28-2.051l-.002-2.195h-6.07v1.745c0 5.056 3.96 6.581 8.226 6.581 4.085 0 7.459-1.396 8.001-5.18.258-1.955.063-3.229-.041-3.708-.945-4.743-9.525-6.17-10.174-8.816zm-74.388-.056c-.111-.462-.085-.948-.023-1.202.156-.729.65-1.541 2.093-1.541 1.338 0 2.126.831 2.126 2.077v1.416h5.705v-1.607c0-4.976-4.486-5.769-7.72-5.769-4.063 0-7.383 1.349-7.99 5.084-.166 1.025-.195 1.927.045 3.083.99 4.676 9.12 6.029 10.303 8.988.221.55.154 1.256.044 1.688-.187.769-.703 1.546-2.234 1.546-1.428 0-2.283-.833-2.283-2.083l-.008-2.201H20v1.749c0 5.114 4.016 6.652 8.315 6.652 4.133 0 7.527-1.409 8.08-5.236.275-1.974.07-3.258-.024-3.745-.965-4.8-9.64-6.222-10.291-8.9z"/></g></g><defs><clipPath id="a"><path fill="#fff" d="M20 87.747h160v24.506H20z"/></clipPath></defs></svg>