<svg xmlns="http://www.w3.org/2000/svg" width="200" height="200" fill="none"><path fill="#374343" d="M0 0h200v200H0z"/><g fill-rule="evenodd" clip-path="url(#a)" clip-rule="evenodd"><path fill="#5ACC5A" d="M92.485 44.08c-22.773 0-41.235 18.462-41.235 41.236v75.872c0 2.43 2.942 3.645 4.66 1.927l22.4-22.39h28.349c22.774 0 41.235-18.462 41.235-41.235V44.08h-55.41z"/><path fill="#0EA84C" d="M78.31 140.724H57.692l12.882 7.732 7.736-7.732z"/><path fill="#2CB757" d="M147.895 44.079h-55.41v55.41l55.41-55.41z"/><path fill="#0EA84C" d="M92.485 44.08c-22.773 0-41.235 18.462-41.235 41.236v55.409L92.485 99.49V44.08z"/><path fill="#75DD66" d="m147.895 44.079-55.41 55.41h55.41v-55.41z"/><path fill="#5ACC5A" d="M92.485 99.49 51.25 140.725h55.409c22.774 0 41.235-18.462 41.235-41.235h-55.41z"/></g><defs><clipPath id="a"><path fill="#fff" d="M51.25 44h97.5v120h-97.5z"/></clipPath></defs></svg>