<svg xmlns="http://www.w3.org/2000/svg" width="200" height="200" fill="none"><path fill="#0F4" d="M0 0h200v200H0z"/><path fill="#2B3836" d="M92.74 99.239c5.056-1.683 5.972-5.925 5.962-9.383-.01-5.287-3.739-9.852-14.773-9.852L63.329 80v39.688h20.543c11.103 0 15.187-5.699 15.187-11.408 0-6.914-6.318-9.041-6.318-9.041zM73.107 88.635h13.869l.048.01c1.565.276 2.705 1.607 2.705 3.168 0 1.599-1.222 3.104-2.835 3.324l-13.781.022-.006-6.524zm13.2 21.803h-13.2v-6.642H86.63l.03.004c1.683.191 2.959 1.591 2.959 3.251 0 1.814-1.51 3.362-3.312 3.387zm58.877-30.43h34.808l-.02 8.66h-25.115l.025 6.397h22.641v8.706h-22.641v6.923H180l-.006 9.077h-34.81m-20.246-39.714h-21.049v39.702h9.665v-16.065l10.646-.01c3.048.047 5.419 2.542 5.419 5.622v10.417l9.46-.004-.017-12.81c0-5.937-5.735-7.693-5.735-7.693s5.863-1.751 5.863-8.769c0-8.588-7.377-10.39-14.252-10.39zm5.276 12.316c-.175 1.307-1.479 2.723-3.108 2.723l-13.587.004v-6.355h13.591c1.625 0 2.897 1.192 3.104 2.763m-73.151 18.657c-.136.002-13.212.254-17.727-.185-7.265-.711-9.842-6.097-9.842-10.49 0-5.483 3.737-9.514 9.523-10.27 2.755-.362 17.806-.19 17.967-.19l.315.005.032-9.029h-.319l-17.038.033c-1.897.115-5.043.306-8.265 1.623a20.22 20.22 0 0 0-7.794 6.304A19.707 19.707 0 0 0 20 99.797c0 1.353.108 2.692.325 3.979 1.225 6.018 5.173 11.001 10.831 13.679 1.91.841 4.858 1.847 10.8 2.182l3.201.067 11.876.011h.315l.032-9.554"/></svg>