<svg xmlns="http://www.w3.org/2000/svg" width="200" height="200" fill="none"><path fill="#000" d="M0 0h200v200H0z"/><path fill="#fff" d="M151.375 118.515h8.626v14.094h-27.176V96.106c0-11.218-3.73-15.52-11.062-15.52-8.911 0-12.512 6.323-12.512 15.39v22.539h8.627v14.094h-27.15V96.106c0-11.218-3.732-15.52-11.062-15.52-8.912 0-12.514 6.323-12.514 15.39v22.539H79.51v14.094H40.001v-14.094h8.629V81.857H40V67.763h27.15v9.767c3.888-6.889 10.65-11.061 19.691-11.061 9.353 0 17.953 4.455 21.139 13.938 3.602-8.627 10.932-13.938 21.14-13.938 11.631 0 22.28 7.046 22.28 22.409v29.637h-.026z"/></svg>