<svg xmlns="http://www.w3.org/2000/svg" width="200" height="200" fill="none"><path fill="#00A58E" d="M0 0h200v200H0z"/><g fill="#fff" clip-path="url(#a)"><path d="M119.883 76.832c-.873-.873-1.939-1.34-3.076-1.34s-2.233.477-3.096 1.34l-19.92 19.93a4.322 4.322 0 0 0-1.288 3.157 4.366 4.366 0 0 0 1.289 3.198l19.919 19.919c.863.862 1.969 1.34 3.096 1.34 1.137 0 2.193-.467 3.076-1.34.894-.894 1.361-1.98 1.34-3.138-.02-1.116-.497-2.192-1.34-3.035l-16.924-16.924 16.924-16.924c1.787-1.797 1.787-4.386 0-6.183zm-29.929 3.046c0-1.177-.436-2.284-1.238-3.096-.812-.823-1.919-1.27-3.127-1.27-2.487 0-4.366 1.879-4.366 4.366v40.061c0 2.528 1.838 4.366 4.366 4.366 1.269 0 2.355-.437 3.167-1.269.772-.802 1.198-1.899 1.198-3.097v-40.06z"/><path fill-rule="evenodd" d="M166.99 96.579a4.8 4.8 0 0 0-4.792 4.792 4.8 4.8 0 0 0 4.792 4.791 4.8 4.8 0 0 0 4.792-4.791 4.794 4.794 0 0 0-4.792-4.792zm-6.954 28.883a4.3 4.3 0 0 0-2.579-.853c-1.381 0-2.69.66-3.503 1.767-5.451 7.39-13.157 13.594-22.284 17.929-9.482 4.507-20.325 6.893-31.381 6.893-16.863 0-32.69-5.421-44.548-15.279-5.695-4.721-10.152-10.203-13.249-16.295-3.177-6.233-4.781-12.852-4.791-19.654 0-6.813 1.614-13.422 4.791-19.665C47.162 71.137 54.95 63.31 65 57.665c10.426-5.848 22.63-8.934 35.31-8.934 11.055 0 21.918 2.396 31.421 6.924 9.137 4.355 16.853 10.579 22.294 18a4.358 4.358 0 0 0 3.513 1.776 4.35 4.35 0 0 0 3.503-6.924c-6.295-8.578-15.137-15.735-25.564-20.71-10.67-5.086-22.822-7.766-35.167-7.766-18.894 0-36.69 6.142-50.122 17.279-6.61 5.482-11.807 11.888-15.452 19.045C30.929 83.827 29 91.766 29 99.97c0 8.204 1.929 16.143 5.736 23.615 5.462 10.71 14.457 19.797 26.01 26.274 11.716 6.568 25.401 10.051 39.564 10.051 12.304 0 24.436-2.67 35.086-7.736 10.406-4.945 19.239-12.082 25.543-20.62 1.442-1.929 1.025-4.66-.903-6.091z" clip-rule="evenodd"/></g><defs><clipPath id="a"><path fill="#fff" d="M29 40h142.843v120H29z"/></clipPath></defs></svg>