<svg xmlns="http://www.w3.org/2000/svg" width="200" height="200" fill="none"><g clip-path="url(#a)"><path fill="#fff" d="M0 0h200v200H0z"/><path fill="#3559C7" d="M-.47-.47h200v200h-200v-200z"/><path fill="#fff" d="M134.344 154.126c-4.855 0-9.478-1.861-12.927-5.321l-.095-.095c-.095-.042-.138-.137-.233-.18L72.417 99.34l7.934-7.934 48.577 47.233.095.085c.095.053.138.148.233.233a7.222 7.222 0 0 0 5.088 2.147c3.967 0 7.701-3.269 7.701-7.32V65.329c0-4.062-3.692-7.33-7.701-7.33-1.819 0-3.639.74-4.993 2.051l-.148.138-22.956 21.094-7.934-7.934 22.734-22.723c.042-.042.085-.138.18-.19 3.501-3.491 8.262-5.501 13.117-5.501 10.082 0 18.756 8.166 18.894 18.248v72.749c-.18 10.082-8.865 18.195-18.894 18.195z"/><path fill="#fff" d="M64.25 44.934c4.856 0 9.479 1.861 12.927 5.32l.095.096c.096.042.138.137.233.18l49.138 48.714-7.934 7.934-49.043-46.757-.095-.085c-.095-.053-.137-.148-.233-.233a7.214 7.214 0 0 0-5.088-2.147 7.3 7.3 0 0 0-7.236 7.32v68.455a7.265 7.265 0 0 0 7.236 7.331c1.82 0 3.64-.741 4.993-2.052l.138-.138 22.966-21.094 7.923 7.934-22.722 22.723c-.043.042-.096.138-.18.191a18.693 18.693 0 0 1-13.118 5.5 18.49 18.49 0 0 1-18.428-18.248v-72.75A18.512 18.512 0 0 1 64.25 44.935z"/></g><defs><clipPath id="a"><path fill="#fff" d="M0 0h200v200H0z"/></clipPath></defs></svg>