<svg xmlns="http://www.w3.org/2000/svg" width="200" height="200" fill="none"><g clip-path="url(#a)"><path fill="#FD2" d="M0 0h200v200H0z"/><path fill="#222" d="m156.714 117.515-2.1-5.95s8.749-13.299-12.949-17.849c0 0 1.4-16.449-6.3-24.148 16.799-16.449 12.949-41.297-25.198-25.198-19.599-37.448-95.194 50.396-63.696 64.395-3.15 4.2-3.15 25.199 18.549 27.299 14.699 31.497 50.396 33.597 71.045 24.148 20.649-9.449 32.548-39.547 20.649-42.697zM64.67 131.514c-17.849-1.75-19.599-26.248-4.2-28.698 15.399-2.45 19.249 30.098 4.2 28.698zm-5.25-33.248c-4.9 0-10.85 6.65-10.85 6.65-23.798-11.55 43.048-88.195 57.397-58.447 0 0-34.998 16.8-46.547 51.797zm69.995 29.748c0-1.4-7.349 2.1-20.648-2.45 1.05-7.349 16.799 6.3 43.047-11.549l2.1 7.35c9.799-1.75 0 31.497-31.498 31.147-25.548-.35-33.598-26.598-19.599-40.947 2.8-2.8-10.15-8.399-7.7-20.648 1.05-5.25 5.6-12.95 17.15-10.85 11.549 2.1 13.999-8.4 21.698-4.55 7.7 3.85 3.15 18.55 4.2 20.65 1.05 2.099 12.249 2.449 14.349 8.399 2.1 5.949-14.349 18.898-39.897 15.399-5.95-.7-9.45 6.999-5.6 11.899 7.699 11.199 39.197 3.85 44.447-7-13.299 10.15-40.597 13.999-42.697 3.15 7.699 3.5 20.648 1.4 20.648 0zM83.569 72.718c7.699-9.45 17.848-15.05 17.848-15.05l-2.1 5.25s7.35-5.6 15.399-5.6l-2.799 2.8c9.099.35 12.949 3.85 12.949 3.85s-21.349-6.3-41.297 8.75zm47.246 13.649c4.55-.35 3.15 10.15 3.15 10.15h-2.8s-4.899-9.8-.35-10.15zm-20.648 11.55c-3.15.349-6.65 2.099-6.3.699 1.4-5.6 14.349-4.2 13.999.7-.35 4.9-3.15-2.1-7.699-1.4zm7.349 4.199c.35.7-2.45 0-4.549.35-2.1.35-4.2 1.4-4.2.7s8.049-3.85 8.749-1.05zm7 1.05c1.05-2.1 5.249 0 4.199 2.1-1.049 2.099-5.249 0-4.199-2.1zm8.749.7c-2.1 0-2.1-4.55 0-4.55s2.1 4.9 0 4.9v-.35zm-62.996 18.548c1.05 1.05-2.1 3.15-4.55 1.4-2.45-1.75 2.8-10.149-3.5-12.249-6.299-2.1-4.549 5.95-6.299 4.9-1.75-1.05 2.45-12.249 9.8-7.7 7.35 4.55-2.1 11.55 2.1 13.649 4.2 2.1 1.75-.7 2.45 0z"/></g><defs><clipPath id="a"><path fill="#fff" d="M0 0h200v200H0z"/></clipPath></defs></svg>