<svg xmlns="http://www.w3.org/2000/svg" width="200" height="200" fill="none"><path fill="#95BF47" d="M0 0h200v200H0z"/><g fill="#fff" clip-path="url(#a)"><path d="M121 50.454s-1.462.417-3.863 1.148c-.418-1.357-1.045-2.923-1.88-4.594-2.715-5.22-6.787-8.04-11.59-8.04-.314 0-.627 0-1.045.104-.104-.209-.313-.313-.417-.522-2.089-2.297-4.803-3.341-8.04-3.237-6.265.21-12.53 4.699-17.543 12.74-3.55 5.638-6.265 12.738-6.996 18.272-7.204 2.193-12.216 3.76-12.32 3.864-3.655 1.148-3.76 1.253-4.177 4.699C52.502 77.498 43 151.112 43 151.112l78.94 13.679V50.245c-.418.104-.731.104-.94.209zm-18.273 5.638c-4.177 1.253-8.771 2.715-13.261 4.073 1.253-4.908 3.759-9.816 6.683-13.053 1.148-1.148 2.715-2.506 4.49-3.34 1.775 3.758 2.192 8.875 2.088 12.32zM94.269 39.49c1.462 0 2.715.313 3.76.94-1.672.835-3.342 2.193-4.908 3.759-3.968 4.28-6.996 10.964-8.25 17.333a4915.23 4915.23 0 0 1-10.963 3.341c2.192-9.92 10.65-25.06 20.361-25.373zM82.052 96.92c.418 6.682 18.064 8.144 19.109 23.911.731 12.426-6.579 20.884-17.125 21.51-12.739.836-19.735-6.682-19.735-6.682l2.715-11.486s6.996 5.325 12.635 4.907c3.654-.209 5.012-3.237 4.907-5.325-.522-8.771-14.932-8.249-15.871-22.659-.836-12.008 7.1-24.225 24.642-25.373 6.787-.418 10.233 1.253 10.233 1.253l-3.968 15.036s-4.49-2.088-9.815-1.67c-7.727.521-7.831 5.43-7.727 6.578zm24.852-42.08c0-3.133-.418-7.623-1.88-11.382 4.803.94 7.1 6.265 8.145 9.502-1.88.522-3.968 1.148-6.265 1.88zm17.646 109.533 32.787-8.144s-14.096-95.333-14.2-95.96c-.105-.626-.627-1.044-1.149-1.044s-9.711-.209-9.711-.209-5.638-5.43-7.727-7.518v112.875z"/></g><defs><clipPath id="a"><path fill="#fff" d="M43 35h114.337v130H43z"/></clipPath></defs></svg>