<svg xmlns="http://www.w3.org/2000/svg" width="200" height="200" fill="none"><path fill="#7856FF" d="M0 0h200v200H0z"/><g clip-path="url(#a)"><path fill="#fff" d="M76.932 90.826h13.983c-3.502-2.194-4.809-5.252-6.56-10.925l-5.252-19.456c-2.393-8.753-4.365-12.897-13.982-12.897H45.022V52.8h2.859c5.894 0 6.559 2.194 8.31 8.753l4.587 17.063c2.393 8.288 6.138 12.21 16.154 12.21zm32.375 0h13.983c10.06 0 13.539-3.944 15.955-12.232l4.587-17.063c1.75-6.56 2.614-8.753 8.309-8.753H155v-5.252h-19.899c-9.839 0-11.811 3.944-14.005 12.897l-5.252 19.456c-1.728 5.895-3.058 8.753-6.537 10.947zm-18.37 18.348h18.37v-18.37h-18.37v18.37zm-45.915 43.3h20.099c9.617 0 11.59-4.166 13.983-12.897l5.251-19.456c1.751-5.673 3.058-8.753 6.56-10.925H76.932c-10.06 0-13.783 3.945-16.177 12.232l-4.587 17.063c-1.75 6.559-2.393 8.753-8.31 8.753H45l.022 5.23zm90.057 0h19.899v-5.252h-2.859c-5.673 0-6.559-2.194-8.31-8.753l-4.587-17.063c-2.393-8.31-5.894-12.232-15.954-12.232h-13.961c3.501 2.194 4.764 5.03 6.515 10.925l5.252 19.456c2.194 8.975 4.166 12.919 14.005 12.919z"/></g><defs><clipPath id="a"><path fill="#fff" d="M45 47.526h110v104.948H45z"/></clipPath></defs></svg>