<svg xmlns="http://www.w3.org/2000/svg" width="200" height="200" fill="none"><path fill="#000" d="M0 0h200v200H0z"/><g clip-path="url(#a)"><path fill="#fff" d="M149.784 72.174c-6.179 0-11.917 2.03-16.595 5.472-4.678-3.442-10.416-5.472-16.594-5.472-6.179 0-11.917 2.03-16.595 5.472-4.678-3.442-10.328-5.472-16.594-5.472-6.18 0-11.917 2.03-16.595 5.472-4.59-3.442-10.328-5.472-16.595-5.472-15.27 0-27.716 12.27-27.716 27.363 0 15.094 12.446 27.364 27.716 27.364 6.18 0 11.917-2.031 16.595-5.473 4.678 3.442 10.416 5.473 16.594 5.473 6.18 0 11.917-2.031 16.595-5.473 4.59 3.442 10.327 5.473 16.595 5.473 6.178 0 11.916-2.031 16.594-5.473 4.59 3.442 10.328 5.473 16.595 5.473 15.27 0 27.716-12.27 27.716-27.364 0-15.094-12.446-27.363-27.716-27.363zm-16.595 41.486c-3.354-3.795-5.384-8.738-5.384-14.123 0-5.384 2.03-10.327 5.384-14.123 3.354 3.796 5.384 8.739 5.384 14.123 0 5.385-2.03 10.328-5.384 14.123zm-33.189 0c-3.354-3.795-5.384-8.738-5.384-14.123 0-5.384 2.03-10.327 5.384-14.123 3.354 3.796 5.384 8.739 5.384 14.123 0 5.385-2.03 10.328-5.384 14.123zm-33.19 0c-3.353-3.795-5.384-8.738-5.384-14.123 0-5.384 2.03-10.327 5.385-14.123 3.354 3.796 5.384 8.739 5.384 14.123.089 5.385-2.03 10.328-5.384 14.123zM28.238 99.537c0-11.916 9.887-21.626 21.98-21.626 4.501 0 8.738 1.324 12.269 3.708a26.852 26.852 0 0 0-6.797 17.918c0 6.885 2.56 13.152 6.797 17.919-3.531 2.295-7.68 3.707-12.27 3.707-12.092 0-21.979-9.71-21.979-21.626zm42.9 17.919a26.854 26.854 0 0 0 6.796-17.919 26.85 26.85 0 0 0-6.797-17.918c3.53-2.295 7.68-3.708 12.27-3.708s8.738 1.324 12.269 3.708c-4.237 4.766-6.885 11.033-6.885 17.918s2.56 13.152 6.885 17.919c-3.53 2.295-7.68 3.707-12.27 3.707-4.501 0-8.738-1.412-12.269-3.707zm33.188 0c4.237-4.767 6.885-11.034 6.885-17.919s-2.56-13.152-6.885-17.918c3.531-2.295 7.68-3.708 12.27-3.708 4.589 0 8.738 1.324 12.269 3.708-4.237 4.766-6.885 11.033-6.885 17.918s2.56 13.152 6.885 17.919c-3.531 2.295-7.68 3.707-12.269 3.707-4.59 0-8.739-1.412-12.27-3.707zm45.459 3.707c-4.502 0-8.739-1.324-12.27-3.707 4.237-4.767 6.885-11.034 6.885-17.919s-2.56-13.152-6.885-17.918c3.531-2.295 7.68-3.708 12.27-3.708 12.092 0 21.979 9.71 21.979 21.626s-9.887 21.626-21.979 21.626z"/></g><defs><clipPath id="a"><path fill="#fff" d="M22.5 72.174h155v54.727h-155z"/></clipPath></defs></svg>