<svg xmlns="http://www.w3.org/2000/svg" width="200" height="200" fill="none"><path fill="#0052CC" d="M0 0h200v200H0z"/><path fill="url(#a)" d="M73.832 84.368c-1.931-2.126-4.828-1.933-6.18.58l-31.287 62.639c-1.159 2.513.58 5.413 3.283 5.413h43.454c1.352 0 2.704-.773 3.283-2.127 9.657-19.332 3.863-48.912-12.553-66.505z"/><path fill="#fff" d="M96.814 27.53c-17.382 27.646-16.222 58.385-4.828 81.391 11.587 23.006 20.279 40.792 21.051 41.952.579 1.354 1.931 2.127 3.283 2.127h43.454c2.704 0 4.635-2.9 3.283-5.413 0 0-58.518-117.157-60.063-120.057-1.158-2.707-4.635-2.707-6.18 0z"/><defs><linearGradient id="a" x1="90.924" x2="57.9" y1="94.058" y2="151.199" gradientUnits="userSpaceOnUse"><stop stop-color="#fff" stop-opacity=".4"/><stop offset=".923" stop-color="#fff"/></linearGradient></defs></svg>