<svg xmlns="http://www.w3.org/2000/svg" width="200" height="200" fill="none"><path fill="#7399C6" d="M0 0h200v200H0z"/><path fill="#fff" d="M41.212 84.423h8.529v13.628c-2.941.49-6.078.784-7.941.784-8.432 0-11.961-5.196-11.961-13.921 0-9.314 4.51-14.51 13.333-14.51 1.177 0 3.53.098 6.275.686v8.431h-1.961l-1.176-3.235c-1.079-2.941-2.353-4.118-4.314-4.118-3.628 0-5.49 4.608-5.49 12.745 0 8.432 1.078 12.157 5.49 12.157.49 0 1.176 0 2.059-.196v-9.51l-2.941-1.862v-1.079h.098zm8.039 36.961c0 5.49-3.726 8.627-10.392 8.627-1.863 0-4.51-.294-6.961-.784v-10.392h1.96l.785 2.353c1.765 5.49 3.137 7.157 5.49 7.157 2.451 0 4.118-1.863 4.118-4.51 0-2.059-1.079-3.725-3.432-5l-4.02-2.157c-3.136-1.667-4.803-4.216-4.803-7.353 0-4.804 3.823-7.647 10.294-7.647 1.47 0 3.137.098 5.882.49v8.628h-1.96l-1.177-3.137c-1.078-3.04-2.157-4.216-4.412-4.216s-3.725 1.274-3.725 3.235c0 1.667 1.078 3.137 3.235 4.412l4.118 2.255c3.431 1.961 5 4.51 5 8.039zm18.137 6.373.784 1.176v.588h-6.176l-.196-2.549c-.686 1.863-2.55 3.039-4.902 3.039-3.04 0-5.196-1.862-5.196-5.294 0-3.431 1.863-5.49 7.45-7.745l2.55-1.078v-2.843c0-2.157-.686-3.138-2.255-3.138-1.373 0-2.255.883-3.137 3.04l-1.275 3.137h-1.863v-6.471c2.353-.686 4.804-1.176 6.863-1.176 4.706 0 7.255 2.157 7.255 6.176v13.138h.098zm2.647-39.804c0 6.96-3.725 10.882-8.431 10.882-4.706 0-8.432-3.823-8.432-10.882 0-7.06 3.726-10.883 8.432-10.883s8.431 3.922 8.431 10.883zM61.8 124.129v-6.667l-.883.393c-2.352 1.078-3.431 2.843-3.431 5.882 0 2.549.686 3.725 2.059 3.725 1.47.099 2.255-1.372 2.255-3.333zm2.255-36.176c0-7.451-.687-9.314-2.55-9.314-1.862 0-2.548 1.863-2.548 9.314 0 7.45.686 9.313 2.549 9.313 1.862 0 2.549-1.764 2.549-9.313zm19.804 36.47 1.274.687c-1.176 3.333-2.941 5-6.47 5-5.197 0-7.942-4.02-7.942-10.687 0-7.255 3.236-10.98 9.02-10.98 1.47 0 3.627.196 5.294.882v6.863h-1.96l-.785-2.647c-.882-2.941-1.667-3.628-2.745-3.628-1.667 0-2.941 2.059-2.941 9.608 0 6.177.882 8.432 3.431 8.432 1.569-.098 2.647-.981 3.824-3.53zm-3.824-26.078H72.78v-.588l.784-1.177V74.031l-.784-1.176v-.589l6.373-.49V96.58l.784 1.177v.588h.098zm10.098.49c-4.706 0-7.255-3.823-7.255-11.078 0-7.06 2.843-10.687 7.353-10.687 2.059 0 3.334.98 3.824 2.55v-5.59l-.785-1.176v-.589l6.47-.49V96.58l.785 1.177v.588h-5.686l-.49-2.941c-.588 2.353-1.863 3.431-4.216 3.431zm14.118 28.922.784 1.176v.588H97.78v-.588l.784-1.176v-14.706c0-1.471-.686-2.451-1.862-2.451-1.569 0-2.647 1.47-2.647 3.529v13.628l.784 1.176v.588h-7.255v-.588l.784-1.176v-22.549l-.784-1.177v-.588l6.47-.49v8.039c.883-1.863 2.942-2.647 4.805-2.647 3.431 0 5.392 2.059 5.392 6.176v13.236zm-15.49-39.902c0 7.058.686 9.313 2.647 9.313 2.156 0 2.647-3.039 2.647-9.411 0-6.079-.49-9.02-2.647-9.02-1.863 0-2.647 2.255-2.647 9.118zm41.176 8.725.784 1.177v.588h-7.255v-.588l.785-1.177V81.776c0-1.372-.588-2.45-1.863-2.45-1.569 0-2.451 1.568-2.451 3.627V96.58l.784 1.177v.588h-7.255v-.588l.785-1.177V81.776c0-1.372-.588-2.45-1.863-2.45-1.569 0-2.549 1.568-2.549 3.627V96.58l.784 1.177v.588h-7.255v-.588l.785-1.177V79.914l-.785-.98v-.59l5.687-.685h.49l.196 2.45c.784-1.862 2.745-2.94 5-2.94 2.451 0 3.922 1.176 4.706 3.235.882-1.961 2.745-3.236 5.294-3.236 3.235 0 5 1.961 5 6.079V96.58h.196zm-7.941 26.765c0 3.823-2.255 6.765-7.941 6.765-1.373 0-3.334-.197-6.275-.687v-7.451h1.765l.588 1.569c1.471 3.921 2.353 5 4.51 5 2.059 0 3.137-.981 3.137-3.039 0-1.667-.882-2.745-2.843-3.824l-3.627-1.961c-2.353-1.274-3.432-3.039-3.432-5.392 0-3.823 2.843-5.98 7.745-5.98 1.471 0 3.236.196 5.196.588v5.784h-1.666l-.883-2.058c-.882-2.059-1.666-2.844-3.431-2.844-1.765 0-2.745.883-2.745 2.255 0 1.275.784 2.059 2.745 3.138l3.627 2.058c2.255 1.471 3.53 3.236 3.53 6.079zm26.765-26.765.784 1.177v.588h-6.177l-.196-2.55c-.686 1.864-2.549 3.04-4.902 3.04-3.039 0-5.196-1.863-5.196-5.294 0-3.431 1.863-5.49 7.451-7.745l2.549-1.079v-2.843c0-2.157-.686-3.137-2.255-3.137-1.372 0-2.255.882-3.137 3.04l-1.274 3.136h-1.863v-6.568c2.353-.686 4.804-1.177 6.863-1.177 4.705 0 7.255 2.157 7.255 6.177V96.58h.098zm-5.687-3.725v-6.569l-.882.392c-2.353 1.079-3.431 2.843-3.431 5.883 0 2.548.686 3.725 2.058 3.725 1.569 0 2.255-1.47 2.255-3.431zm26.765 4.902v.588h-7.255v-.588l.784-1.177V81.776c0-1.47-.686-2.45-1.862-2.45-1.569 0-2.647 1.47-2.647 3.529v13.627l.784 1.177v.588h-7.255v-.588l.784-1.177V79.815l-.784-.98v-.588l5.686-.686h.49l.197 2.549c.784-2.157 2.941-2.942 5-2.942 3.431 0 5.392 2.06 5.392 6.177V96.58l.686 1.177z"/></svg>