<svg xmlns="http://www.w3.org/2000/svg" width="200" height="200" fill="none"><path fill="#E60023" d="M0 0h200v200H0z"/><g clip-path="url(#a)"><path fill="#fff" d="M35 100.001c0 26.617 16.005 49.482 38.908 59.535-.183-4.538-.032-9.987 1.132-14.926 1.25-5.276 8.363-35.419 8.363-35.419s-2.076-4.15-2.076-10.284c0-9.632 5.583-16.827 12.536-16.827 5.912 0 8.768 4.441 8.768 9.759 0 5.943-3.79 14.834-5.74 23.068-1.628 6.895 3.457 12.519 10.26 12.519 12.315 0 20.61-15.818 20.61-34.56 0-14.245-9.596-24.909-27.048-24.909-19.717 0-32 14.705-32 31.13 0 5.663 1.67 9.656 4.285 12.749 1.202 1.42 1.37 1.991.934 3.622-.312 1.196-1.028 4.076-1.324 5.217-.433 1.646-1.767 2.234-3.255 1.627-9.082-3.708-13.311-13.653-13.311-24.833 0-18.465 15.572-40.606 46.455-40.606 24.817 0 41.151 17.959 41.151 37.236 0 25.498-14.176 44.548-35.073 44.548-7.017 0-13.618-3.793-15.88-8.102 0 0-3.773 14.976-4.572 17.868-1.378 5.012-4.076 10.021-6.542 13.925a64.933 64.933 0 0 0 18.422 2.666c35.894 0 64.998-29.103 64.998-65.003 0-35.899-29.104-65.001-64.998-65.001C64.105 35 35 64.102 35 100.001z"/></g><defs><clipPath id="a"><path fill="#fff" d="M35 35h130v130H35z"/></clipPath></defs></svg>