<svg xmlns="http://www.w3.org/2000/svg" width="200" height="200" fill="none"><path fill="#172D63" d="M0 0h200v200H0z"/><path fill="#fff" d="M160.429 102.425a23.703 23.703 0 0 0-15.687-22.358 34.118 34.118 0 0 0-7.181-28.12 34.126 34.126 0 0 0-26.229-12.421 33.98 33.98 0 0 0-27.605 14.107 18.08 18.08 0 0 0-29.132 14.312c.007 2.154.386 4.29 1.12 6.315a23.81 23.81 0 0 0-.05 44.819 33.953 33.953 0 0 0 19.873 37.669 33.948 33.948 0 0 0 41.04-11.388 17.82 17.82 0 0 0 11.052 3.87 18.083 18.083 0 0 0 18.08-18.08 18.734 18.734 0 0 0-1.121-6.315 23.983 23.983 0 0 0 15.84-22.41z"/><path fill="#FED10A" d="m87.292 91.22 26.383 12.02 26.585-23.326c.393-1.927.581-3.89.561-5.857a29.722 29.722 0 0 0-20.923-28.408 29.717 29.717 0 0 0-33.319 11.6l-4.43 22.97 5.143 11.001z"/><path fill="#24BBB1" d="M59.994 119.13a28.842 28.842 0 0 0-.56 5.959 29.835 29.835 0 0 0 54.495 16.756l4.38-22.867-5.857-11.205-26.484-12.07-25.974 23.427z"/><path fill="#EF5098" d="m59.84 73.496 18.081 4.279 3.973-20.526A14.26 14.26 0 0 0 59.84 73.496z"/><path fill="#17A8E0" d="M58.262 77.826a19.914 19.914 0 0 0-.866 37.536l25.364-22.92-4.635-9.93-19.863-4.686z"/><path fill="#93C83E" d="M118.513 141.845a14.253 14.253 0 0 0 8.519 2.884 14.26 14.26 0 0 0 13.483-19.13l-18.029-4.228-3.973 20.474z"/><path fill="#0779A1" d="m122.18 116.635 19.863 4.634a19.908 19.908 0 0 0 13.699-18.461 19.916 19.916 0 0 0-12.833-19.075L116.934 106.5l5.246 10.135z"/></svg>