<svg xmlns="http://www.w3.org/2000/svg" width="200" height="200" fill="none"><path fill="#8C50B9" d="M0 0h200v200H0z"/><g clip-path="url(#a)"><path fill="#fff" d="m149.325 67.83.903 2.116.444 1.09.819 2.1.403 1.078.794 2.211.778 2.286.763 2.36.749 2.437.364 1.23.689 2.418c.111.399.219.795.325 1.19l.609 2.336.284 1.148.527 2.257c6.667 29.739-1.294 45.553-28.81 56.59l-2.1.819c-1.425.54-2.899 1.069-4.423 1.588l-2.323.77-3.01.943-3.062.901-2.391.663c-.788.212-1.567.415-2.337.609l-2.283.555c-1.202.281-2.382.538-3.54.773l-2.288.437c-26.728 4.795-41.441-3.737-51.881-29.765l-.819-2.1-.403-1.078-.794-2.212c-.13-.374-.26-.752-.39-1.133l-.77-2.324-.757-2.398-.737-2.458-.69-2.418a157.115 157.115 0 0 1-.933-3.525l-.554-2.284c-7.208-30.84.888-46.93 29.594-58.123l2.137-.81c1.087-.401 2.202-.796 3.345-1.185l2.323-.77 1.19-.38 2.436-.75 2.446-.715 2.391-.663a140.28 140.28 0 0 1 2.337-.608l2.282-.555 2.376-.531c27.757-5.915 43.173 1.322 53.987 25.88z"/><path fill="#8C50B9" fill-rule="evenodd" d="M111.107 101.032c0 1.419-.266 9.432-.798 24.038-.041 1.245-.782 1.854-1.527 2.071-3.779 1.099-7.612 2.014-10.796 2.507l-1.162.165-2.372.278c-.424.047-.853.073-1.285.08-.568.01-1.51-.472-1.56-1.869-.645-16.761-.968-25.851-.968-27.27 0-2.128 1.945-5.135 10.234-5.135 8.288 0 10.234 3.007 10.234 5.135zm-31.443 2.481c.526 0 .992.022 1.395.056l.723.08.55.089.585.136c.668.151 1.23.836 1.252 1.499l.733 21.498c.087 1.455-.86 1.595-1.334 1.382l-.107-.06c-3.277-1.634-6.135-4.168-7.802-7.181l-.363-.703-1.028-2.176c-.885-2.026-1.815-4.503-2.697-7.157l-.436-1.34c-.066-.174-.118-.487-.157-.938a4.684 4.684 0 0 1-.022-.748l.022-.13.016-.175.036-.201.072-.261c.015-.048.033-.098.052-.15l.146-.33c.643-1.276 2.573-3.19 8.364-3.19zm41.977 0c5.791 0 7.721 1.914 8.364 3.19l.146.33.093.287.068.325.095.956.078 1.068.041.881c.005.156.01.315.013.477l.003 1.004c-.028 1.884-.256 3.941-1.005 5.114-1.486 2.327-3.346 3.594-5.353 4.612l-.607.299-2.175 1.028-.793.331-1.534.605-1.267.485c-.781.296-1.071-.186-1.175-.673l-.048-.354-.003-.423.628-17.671c.021-.598.444-1.193.986-1.432l.331-.107.478-.108.54-.089c.104-.015.216-.029.334-.042l.798-.067c.293-.016.615-.026.964-.026zm-40.823-5.879a6.71 6.71 0 1 0 0-13.422 6.71 6.71 0 0 0 0 13.422zm40.107 0a6.71 6.71 0 0 0 6.71-6.71 6.71 6.71 0 1 0-13.421 0 6.71 6.71 0 0 0 6.711 6.71zm-20.133-7.895a8.685 8.685 0 1 0 0-17.37 8.685 8.685 0 0 0 0 17.37z" clip-rule="evenodd"/></g><defs><clipPath id="a"><path fill="#fff" d="M40 40h120v120H40z"/></clipPath></defs></svg>