<svg xmlns="http://www.w3.org/2000/svg" width="200" height="200" fill="none"><path fill="#000" d="M0 0h200v200H0z"/><g fill="#fff" clip-path="url(#a)"><path d="M38.055 110.298c.591 1.57 1.41 2.913 2.457 4.028a10.563 10.563 0 0 0 3.72 2.559c1.434.592 2.992.888 4.676.888 1.638 0 3.174-.307 4.608-.922a11.326 11.326 0 0 0 3.754-2.594c1.07-1.115 1.9-2.446 2.492-3.993.591-1.547.887-3.276.887-5.188V75.588h7.167v47.782h-7.099v-4.437a16.447 16.447 0 0 1-5.631 3.891c-2.162.91-4.494 1.365-6.997 1.365-2.548 0-4.926-.444-7.133-1.331s-4.119-2.15-5.734-3.788c-1.616-1.639-2.89-3.607-3.823-5.905-.933-2.298-1.399-4.858-1.399-7.679V75.588h7.167v29.488c0 1.912.296 3.652.888 5.222zm42.115-34.71v17.406a18.26 18.26 0 0 1 5.53-3.788c2.093-.933 4.368-1.4 6.826-1.4 2.548 0 4.937.478 7.167 1.434 2.23.955 4.164 2.252 5.802 3.89 1.638 1.639 2.935 3.573 3.891 5.803s1.433 4.596 1.433 7.099-.477 4.858-1.433 7.065c-.956 2.207-2.253 4.13-3.891 5.768s-3.572 2.935-5.802 3.891c-2.23.955-4.619 1.433-7.167 1.433-2.458 0-4.744-.466-6.86-1.399a18.134 18.134 0 0 1-5.564-3.789v4.369h-6.826V75.588h6.895zm.786 35.154a11.889 11.889 0 0 0 2.56 3.823 12.351 12.351 0 0 0 3.822 2.593c1.456.638 3.026.956 4.71.956a11.44 11.44 0 0 0 4.642-.956 11.94 11.94 0 0 0 3.788-2.593 12.665 12.665 0 0 0 2.56-3.823c.637-1.456.956-3.026.956-4.71 0-1.684-.319-3.265-.956-4.744-.637-1.48-1.49-2.765-2.56-3.857a11.488 11.488 0 0 0-3.788-2.56 11.82 11.82 0 0 0-4.642-.921 11.83 11.83 0 0 0-4.642.921 11.884 11.884 0 0 0-3.822 2.56 12.241 12.241 0 0 0-2.594 3.857c-.637 1.479-.956 3.06-.956 4.744 0 1.684.307 3.254.922 4.71zm33.754-11.741a18.562 18.562 0 0 1 3.754-5.768c1.592-1.66 3.481-2.969 5.666-3.925 2.184-.955 4.55-1.433 7.099-1.433 2.503 0 4.823.455 6.962 1.365 2.139.91 3.982 2.173 5.529 3.789 1.548 1.615 2.754 3.526 3.618 5.733.865 2.208 1.297 4.608 1.297 7.202v2.253h-28.328c.228 1.41.683 2.719 1.365 3.924a11.83 11.83 0 0 0 2.56 3.14 11.68 11.68 0 0 0 3.481 2.082c1.297.501 2.674.751 4.13.751 4.141 0 7.486-1.706 10.034-5.119l4.983 3.686a18.538 18.538 0 0 1-6.416 5.46c-2.548 1.32-5.415 1.98-8.601 1.98-2.594 0-5.017-.455-7.269-1.365-2.253-.91-4.21-2.185-5.871-3.823-1.661-1.638-2.969-3.561-3.925-5.768-.955-2.207-1.433-4.607-1.433-7.201-.001-2.458.455-4.778 1.365-6.963zm9.59-2.696c-1.934 1.615-3.219 3.766-3.856 6.45h21.229c-.592-2.684-1.855-4.835-3.789-6.45-1.934-1.616-4.198-2.423-6.792-2.423-2.594 0-4.858.807-6.792 2.423zm37.236.785c-1.456 1.593-2.185 3.754-2.185 6.485v19.795h-6.894V88.557h6.826v4.3a9.705 9.705 0 0 1 3.379-3.344c1.388-.82 3.037-1.229 4.949-1.229H170v6.417h-2.867c-2.275 0-4.141.796-5.597 2.389z"/></g><defs><clipPath id="a"><path fill="#fff" d="M30 75.588h140v48.601H30z"/></clipPath></defs></svg>