<svg xmlns="http://www.w3.org/2000/svg" width="200" height="200" fill="none"><path fill="#00BCEB" d="M0 0h200v200H0z"/><path fill="#fff" d="M71.756 130.744h5.71v-22.6h-5.71v22.6zm-25.063-11.311c0 7.279 5.623 11.703 12.03 11.703 2.55 0 4.49-.588 5.21-.806v-6.059c-.262.131-2.115 1.199-4.795 1.199-3.814 0-6.255-2.681-6.255-6.037 0-3.444 2.55-6.037 6.255-6.037 2.724 0 4.555 1.09 4.794 1.22v-6.058c-.544-.153-2.528-.807-5.208-.807-6.93 0-12.03 4.947-12.03 11.682zm59.519 0c0 7.279 5.623 11.703 12.031 11.703 2.528 0 4.489-.588 5.186-.806v-6.059c-.239.131-2.114 1.199-4.794 1.199-3.792 0-6.255-2.681-6.255-6.037 0-3.444 2.55-6.037 6.255-6.037 2.724 0 4.555 1.09 4.794 1.22v-6.058c-.544-.153-2.528-.807-5.186-.807-6.953 0-12.031 4.947-12.031 11.682zm29.269 0c0-3.269 2.507-5.95 5.907-5.95 3.378 0 5.906 2.659 5.906 5.95 0 3.291-2.528 5.949-5.906 5.949-3.4.022-5.907-2.658-5.907-5.949zm-6.036 0c0 6.472 4.99 11.703 11.921 11.703 6.952 0 11.943-5.231 11.943-11.703 0-6.451-4.991-11.682-11.943-11.682-6.931 0-11.921 5.231-11.921 11.682zm-44.329-4.621c0 3.749 2.659 5.601 5.819 6.604.349.109.872.283 1.22.392 1.417.436 2.528 1.112 2.528 2.245 0 1.286-1.307 2.114-4.14 2.114-2.485 0-4.882-.719-5.383-.85v5.209c.283.065 3.116.61 6.145.61 4.36 0 9.35-1.896 9.35-7.584 0-2.746-1.678-5.296-5.383-6.451l-1.57-.501c-.936-.306-2.614-.785-2.614-2.158 0-1.09 1.242-1.853 3.53-1.853 1.962 0 4.38.654 4.446.698v-4.838c-.174-.044-2.79-.72-5.557-.72-5.23.022-8.391 2.855-8.391 7.083zM34.99 83.865v5.928a2.842 2.842 0 0 0 2.833 2.833 2.828 2.828 0 0 0 2.834-2.833v-5.928a2.841 2.841 0 0 0-2.834-2.833c-1.569.022-2.833 1.286-2.833 2.833zm62.2 0v5.928a2.828 2.828 0 0 0 2.833 2.833 2.823 2.823 0 0 0 2.811-2.833v-5.928c0-1.547-1.264-2.833-2.811-2.833-1.57.022-2.833 1.286-2.833 2.833zm62.177 0v5.928a2.823 2.823 0 0 0 2.812 2.833 2.823 2.823 0 0 0 2.811-2.833v-5.928c0-1.547-1.264-2.833-2.811-2.833-1.548.022-2.812 1.286-2.812 2.833zm-108.838-7.78v13.708a2.828 2.828 0 0 0 2.833 2.833 2.828 2.828 0 0 0 2.834-2.833V76.085a2.841 2.841 0 0 0-2.834-2.833 2.842 2.842 0 0 0-2.833 2.833zm31.1 0v13.708a2.828 2.828 0 0 0 2.833 2.833 2.828 2.828 0 0 0 2.833-2.833V76.085a2.842 2.842 0 0 0-2.833-2.833c-1.547 0-2.833 1.285-2.833 2.833zm31.1 0v13.708a2.828 2.828 0 0 0 2.833 2.833 2.842 2.842 0 0 0 2.833-2.833V76.085a2.841 2.841 0 0 0-2.833-2.833 2.841 2.841 0 0 0-2.833 2.833zm31.078 0v13.708a2.823 2.823 0 0 0 2.811 2.833 2.832 2.832 0 0 0 2.855-2.833V76.085a2.846 2.846 0 0 0-2.855-2.833c-1.547 0-2.811 1.285-2.811 2.833zM66.09 65.428v30.01a2.828 2.828 0 0 0 2.833 2.833 2.842 2.842 0 0 0 2.833-2.833v-30.01a2.828 2.828 0 0 0-2.833-2.834c-1.569.022-2.833 1.286-2.833 2.834zm62.199 0v30.01a2.824 2.824 0 0 0 2.812 2.833 2.809 2.809 0 0 0 2.811-2.833v-30.01a2.823 2.823 0 0 0-2.811-2.834c-1.547.022-2.812 1.286-2.812 2.834z"/></svg>