<svg xmlns="http://www.w3.org/2000/svg" width="200" height="200" fill="none"><path fill="#fff" d="M0 0h200v200H0z"/><g fill-rule="evenodd" clip-path="url(#a)" clip-rule="evenodd"><path fill="#0D9DDA" d="M86.227 56.483c5.146-5.356 12.308-8.673 20.22-8.673 10.549 0 19.692 5.86 24.615 14.593a33.996 33.996 0 0 1 13.89-2.96c18.989 0 34.403 15.531 34.403 34.696s-15.414 34.696-34.403 34.696c-2.321 0-4.583-.233-6.798-.674-4.308 7.678-12.542 12.894-21.92 12.894a25.027 25.027 0 0 1-11.018-2.532c-4.366 10.256-14.535 17.465-26.373 17.465-12.367 0-22.858-7.795-26.902-18.754-1.8.38-3.634.57-5.474.569-14.71 0-26.608-12.073-26.608-26.901 0-9.963 5.357-18.637 13.304-23.326a30.829 30.829 0 0 1-2.55-12.307c0-17.114 13.891-30.946 31.005-30.946a30.867 30.867 0 0 1 24.615 12.191"/><path fill="#FFFFFE" d="M43.092 102.198c-.1.261.035.316.068.362.3.217.603.374.908.55 1.63.862 3.165 1.114 4.77 1.114 3.271 0 5.305-1.741 5.305-4.542v-.055c0-2.59-2.298-3.534-4.443-4.208l-.28-.091c-1.624-.526-3.025-.985-3.025-2.052v-.054c0-.914.82-1.588 2.087-1.588 1.406 0 3.083.468 4.155 1.06 0 0 .318.206.433-.1.063-.167.61-1.63.668-1.794.062-.172-.047-.301-.158-.368-1.231-.75-2.93-1.26-4.69-1.26h-.326c-2.995 0-5.087 1.812-5.087 4.402v.056c0 2.731 2.31 3.622 4.466 4.237l.347.108c1.57.483 2.93.903 2.93 2.005v.055c0 1.013-.884 1.77-2.303 1.77-.551 0-2.309-.01-4.214-1.214-.23-.134-.361-.231-.539-.339-.094-.057-.328-.159-.43.148l-.645 1.793m47.883 0c-.1.262.036.316.07.362.297.217.603.374.908.551 1.629.861 3.164 1.113 4.77 1.113 3.27 0 5.304-1.74 5.304-4.542v-.055c0-2.59-2.291-3.534-4.442-4.208l-.28-.09c-1.624-.527-3.025-.986-3.025-2.052v-.055c0-.914.82-1.588 2.086-1.588 1.407 0 3.077.468 4.156 1.06 0 0 .317.206.433-.1.063-.166.61-1.63.663-1.794.062-.172-.047-.301-.159-.368-1.23-.75-2.93-1.26-4.688-1.26l-.327.001c-2.995 0-5.087 1.811-5.087 4.401v.056c0 2.731 2.309 3.622 4.466 4.238l.346.107c1.576.483 2.93.903 2.93 2.005v.055c0 1.014-.885 1.77-2.303 1.77-.553 0-2.315-.01-4.214-1.213-.23-.135-.365-.227-.54-.34-.059-.037-.335-.145-.43.148l-.644 1.793m32.703-5.485c0 1.582-.295 2.83-.873 3.715-.577.874-1.448 1.302-2.661 1.302s-2.08-.425-2.649-1.296c-.572-.879-.861-2.133-.861-3.715 0-1.583.29-2.825.861-3.699.567-.867 1.43-1.283 2.649-1.283s2.087.42 2.661 1.283c.581.874.873 2.116.873 3.699m2.731-2.937c-.269-.908-.685-1.705-1.242-2.373a5.947 5.947 0 0 0-2.098-1.594c-.832-.39-1.817-.587-2.931-.587-1.113 0-2.092.198-2.93.587a6.028 6.028 0 0 0-2.098 1.594c-.556.668-.973 1.465-1.243 2.373a10.376 10.376 0 0 0-.402 2.937c0 1.049.136 2.033.402 2.936a6.576 6.576 0 0 0 1.243 2.373 5.894 5.894 0 0 0 2.098 1.583c.838.38 1.823.573 2.93.573 1.108 0 2.093-.193 2.925-.573a5.883 5.883 0 0 0 2.098-1.583c.556-.668.973-1.465 1.243-2.373.266-.903.401-1.887.401-2.936a10.41 10.41 0 0 0-.401-2.937m22.446 7.502c-.089-.265-.348-.165-.348-.165a6.307 6.307 0 0 1-1.272.363 9.795 9.795 0 0 1-1.495.107c-1.318 0-2.373-.393-3.123-1.172-.756-.78-1.178-2.034-1.173-3.734.005-1.547.378-2.707 1.05-3.598.662-.88 1.682-1.336 3.03-1.336 1.125 0 1.986.13 2.889.413 0 0 .214.093.316-.189.24-.662.417-1.137.674-1.864.073-.208-.105-.296-.17-.32-.354-.14-1.19-.366-1.823-.462a13.74 13.74 0 0 0-2.051-.137c-1.149 0-2.169.197-3.042.586a6.296 6.296 0 0 0-2.198 1.594 6.775 6.775 0 0 0-1.33 2.374 9.435 9.435 0 0 0-.445 2.942c0 2.262.609 4.096 1.816 5.439 1.208 1.348 3.025 2.027 5.392 2.027 1.401 0 2.837-.283 3.868-.691 0 0 .197-.095.112-.325l-.674-1.852m4.776-6.095c.131-.88.372-1.612.751-2.18.566-.868 1.43-1.342 2.643-1.342 1.213 0 2.016.477 2.59 1.342.381.571.548 1.33.61 2.18l-6.623-.001h.029zm9.202-1.934c-.233-.873-.809-1.758-1.184-2.163-.598-.639-1.178-1.09-1.758-1.336a6.741 6.741 0 0 0-2.649-.537c-1.155 0-2.204.195-3.054.591-.85.4-1.565.944-2.127 1.624a6.686 6.686 0 0 0-1.255 2.403 10.41 10.41 0 0 0-.405 2.948c0 1.066.141 2.057.419 2.954a6.082 6.082 0 0 0 1.342 2.35c.61.662 1.389 1.178 2.327 1.541.932.361 2.063.548 3.358.544 2.673-.009 4.079-.604 4.654-.926.102-.058.199-.157.078-.442l-.604-1.694c-.092-.253-.348-.161-.348-.161-.662.247-1.6.691-3.798.685-1.435-.002-2.496-.426-3.164-1.09-.68-.68-1.02-1.67-1.073-3.077l9.26.007s.244-.002.269-.24c.01-.098.317-1.899-.276-3.98l-.012-.001zm-83.224 1.934c.131-.88.373-1.612.75-2.18.568-.868 1.43-1.342 2.644-1.342 1.213 0 2.016.477 2.59 1.342.38.571.547 1.33.61 2.18l-6.623-.001h.03zm9.202-1.934c-.232-.873-.809-1.758-1.184-2.163-.598-.639-1.178-1.09-1.758-1.336a6.74 6.74 0 0 0-2.65-.537c-1.154 0-2.203.195-3.053.591-.85.4-1.565.944-2.127 1.624a6.695 6.695 0 0 0-1.255 2.403 10.409 10.409 0 0 0-.404 2.948c0 1.066.14 2.057.42 2.954.28.902.732 1.693 1.336 2.35.61.662 1.389 1.178 2.327 1.541.932.361 2.057.548 3.358.544 2.672-.009 4.08-.604 4.653-.926.102-.058.2-.157.078-.442l-.603-1.694c-.093-.253-.349-.161-.349-.161-.662.247-1.6.691-3.798.685-1.43-.002-2.497-.426-3.165-1.09-.68-.68-1.02-1.67-1.072-3.077l9.26.007s.244-.002.269-.24c.01-.098.317-1.899-.277-3.98l-.006-.001zm-29.187 7.971c-.363-.29-.413-.361-.533-.549-.184-.283-.278-.686-.278-1.201 0-.81.27-1.395.827-1.788-.006.001.797-.692 2.684-.668.84.015 1.678.086 2.508.214v4.202h.002s-1.172.253-2.497.332c-1.881.113-2.714-.541-2.708-.54l-.005-.002zm3.68-6.506a20.583 20.583 0 0 0-1.441-.041c-.791 0-1.56.099-2.274.292a5.926 5.926 0 0 0-1.928.897 4.471 4.471 0 0 0-1.343 1.523c-.327.61-.494 1.325-.494 2.134 0 .82.142 1.529.424 2.11.275.575.69 1.073 1.207 1.447.514.374 1.149.651 1.881.815.727.166 1.547.25 2.45.25.95 0 1.893-.08 2.807-.234a55.691 55.691 0 0 0 2.327-.453c.308-.071.65-.164.65-.164.23-.058.212-.302.212-.302l-.006-8.44c0-1.852-.494-3.23-1.47-4.079-.974-.85-2.398-1.278-4.244-1.278-.691 0-1.81.094-2.479.228 0 0-2.016.392-2.848 1.044 0 0-.183.112-.084.367l.657 1.758c.081.228.303.15.303.15s.07-.027.152-.076c1.776-.967 4.027-.938 4.027-.938.996 0 1.77.203 2.285.598.505.388.762.973.762 2.204v.39a32.567 32.567 0 0 0-1.524-.18l-.008-.022zm74.433-4.765a.253.253 0 0 0-.139-.333c-.158-.06-.944-.225-1.547-.263-1.161-.073-1.805.123-2.386.383-.573.259-1.207.674-1.559 1.155l-.001-1.125c0-.155-.109-.28-.265-.28h-2.368c-.154 0-.265.125-.265.28v13.773a.28.28 0 0 0 .281.28h2.426a.28.28 0 0 0 .28-.28v-6.916c0-.926.102-1.846.306-2.427.2-.573.473-1.031.808-1.36a2.815 2.815 0 0 1 1.143-.685 4.502 4.502 0 0 1 1.243-.175c.483 0 1.014.125 1.014.125.178.02.277-.09.337-.25.159-.422.61-1.688.698-1.94"/><path fill="#FFFFFE" d="M115.063 83.589a7.158 7.158 0 0 0-2.17-.314c-1.672 0-2.991.472-3.916 1.405-.919.926-1.544 2.337-1.858 4.193l-.113.626h-2.099s-.256-.01-.31.27l-.344 1.922c-.024.184.055.298.301.297h2.043l-2.073 11.571c-.162.932-.348 1.699-.554 2.28-.203.573-.401 1.002-.645 1.314-.236.302-.46.524-.846.654a3.436 3.436 0 0 1-1.088.156c-.224 0-.521-.037-.741-.081-.22-.044-.334-.093-.499-.162 0 0-.24-.092-.334.149-.077.196-.621 1.693-.686 1.879-.065.183.027.327.143.368.272.098.474.16.844.247.515.121.949.129 1.355.129.851 0 1.626-.12 2.269-.352.647-.233 1.21-.641 1.709-1.192.538-.595.877-1.218 1.201-2.068.321-.842.594-1.888.812-3.106l2.083-11.786h3.046s.256.01.31-.269l.344-1.922c.024-.184-.054-.299-.302-.298h-2.955c.014-.067.149-1.106.488-2.085.145-.418.417-.755.648-.987.216-.22.481-.385.774-.481.322-.1.656-.148.993-.143.278 0 .551.033.759.077.287.06.398.093.473.115.301.092.342.003.401-.143l.707-1.941c.073-.209-.104-.297-.17-.322zm-41.304 19.995c0 .155-.11.281-.264.281h-2.452c-.155 0-.266-.126-.266-.281V83.852c0-.154.11-.28.266-.28h2.451c.155 0 .265.126.265.28v19.732z"/></g><defs><clipPath id="a"><path fill="#fff" d="M20 44h160v111.941H20z"/></clipPath></defs></svg>