<svg xmlns="http://www.w3.org/2000/svg" width="200" height="200" fill="none"><g clip-path="url(#a)"><path fill="#0672CB" d="M0 0h200v200H0z"/><path fill="#fff" d="M181.362 113.49v9.564h-30.157v-47.33h10.959v37.696h19.198v.07zM89.913 73.071 63.177 93.665c-2.744-10.262-11.658-17.801-22.618-17.801H21.362v47.329h19.197c10.96 0 20.593-7.539 22.618-17.801l26.736 20.594 26.737-20.594v17.801h30.157v-9.633h-19.896V75.864h-10.959v17.8l-25.34 20.594-5.48-4.803 12.355-9.633 13.054-10.262-7.539-6.164-25.34 19.895-5.48-4.803 25.34-19.197-7.539-6.164h-.014l-.056-.056zm-58.29 12.356h8.238c1.71 0 3.393.384 4.935 1.09a13.199 13.199 0 0 1 4.16 3.029 14.395 14.395 0 0 1 2.863 4.551 15.605 15.605 0 0 1 1.061 5.725c0 1.885-.335 3.72-.97 5.424a14.754 14.754 0 0 1-2.716 4.593c-1.159 1.327-2.54 2.416-4.119 3.176a11.946 11.946 0 0 1-5.221 1.187h-8.238v-28.76l.008-.015z"/></g><defs><clipPath id="a"><path fill="#fff" d="M0 0h200v200H0z"/></clipPath></defs></svg>