<svg xmlns="http://www.w3.org/2000/svg" width="200" height="200" fill="none"><path fill="#0F62FE" d="M0 0h200v200H0z"/><g fill="#fff" clip-path="url(#a)"><path d="M30 124.25h27.22v3.897H30v-3.897zm0-7.474h27.22v3.911H30v-3.911zm7.766-7.46H49.44v3.91H37.766v-3.91zm0-7.461H49.44v3.911H37.766v-3.911zm0-7.46H49.44v3.91H37.766v-3.91zm0-7.475H49.44v3.911H37.766v-3.91zm19.454-7.46H30v3.91h27.22v-3.91zm0-7.46H30v3.91h27.22V72zm3.883 48.687h41.864a13.874 13.874 0 0 0 1.554-3.911H61.103v3.911zm38.606-18.832H68.883v3.911h34.085a15.675 15.675 0 0 0-3.26-3.911zm-30.826-7.46v3.91h30.826a14.56 14.56 0 0 0 3.259-3.91H68.883zm34.085-14.935H61.103v3.91h43.418a16.97 16.97 0 0 0-1.553-3.91zM90.1 72H61.102v3.91h38.994A14.72 14.72 0 0 0 90.099 72zm-9.555 14.92H68.883v3.911h11.662v-3.91zm11.675 3.911h12.203c.347-1.248.527-2.565.527-3.91H92.22v3.91zm-23.337 18.485h11.662v3.91H68.883v-3.91zm23.337 0v3.91h12.73c0-1.345-.18-2.662-.527-3.91H92.221zm-31.117 18.803 28.996.042a14.73 14.73 0 0 0 10.012-3.911H61.103v3.869zm46.676-3.869h19.442v3.897h-19.442v-3.897zm0-7.474h19.442v3.911h-19.442v-3.911zm7.766-7.46h11.676v3.91h-11.676v-3.91zm0-7.461h11.676v3.911h-11.676v-3.911zm17.084-22.395h-24.85v3.91h26.195l-1.345-3.91zm-2.58-7.46h-22.27v3.91h23.616L130.049 72zm20.496 52.25H170v3.897h-19.455v-3.897zm0-7.474H170v3.911h-19.455v-3.911zm0-7.46h11.676v3.91h-11.676v-3.91zm0-7.461h11.676v3.911h-11.676v-3.911zm0-3.55h11.676v-3.91h-22.243l-1.095 3.162-1.096-3.162h-22.242v3.91h11.676v-3.591l1.234 3.591h20.856l1.234-3.591v3.591zm11.676-11.385h-19.664l-1.345 3.911h21.009v-3.91zM147.73 72l-1.345 3.91H170V72h-22.27zm-8.847 56.119 1.345-3.869h-2.69l1.345 3.869zm-2.579-7.432h5.158l1.387-3.911h-7.918l1.373 3.911zm-2.621-7.461h10.4l1.373-3.91H132.31l1.373 3.91zm-2.607-7.46h15.628l1.331-3.911h-18.304l1.345 3.911zm-15.531-14.935h21.008l-1.345-3.91h-19.663v3.91zm28.26-7.461H170v-3.91h-24.863l-1.332 3.91z"/></g><defs><clipPath id="a"><path fill="#fff" d="M30 72h140v56.161H30z"/></clipPath></defs></svg>