<svg xmlns="http://www.w3.org/2000/svg" width="200" height="200" fill="none"><path fill="#00AECF" d="M0 0h200v200H0z"/><path fill="#fff" d="M48.164 119.466c-10.51-10.51-10.51-26.625 0-37.135l35.034-35.033c7.707-7.708 20.319-9.81 29.427-4.905L78.293 76.726c-3.504 3.503-3.504 9.108 0 11.911 3.503 3.503 9.108 3.503 11.911 0l6.306-6.306c3.504-3.503 7.007-3.503 9.809-.7l13.313 13.312c3.504 3.504 4.204 6.306 0 10.51l-12.612 13.313c-3.503 3.503-7.006 3.503-10.51 0L72.687 94.943c-3.503-3.503-9.108-3.503-11.91 0-3.504 3.503-3.504 9.109 0 11.911l30.829 30.83c6.306 6.306 15.414 6.306 21.72 0l25.925-25.925c6.306-6.306 6.306-15.415 0-21.72l-19.619-19.62c-2.803-2.802-2.803-6.305 0-9.809l6.306-6.306.701-.7 24.523 24.523c12.612 12.612 12.612 32.931 0 45.543l-26.625 26.626c-12.612 12.612-32.931 12.612-45.543 0l-30.83-30.83z"/></svg>