<svg xmlns="http://www.w3.org/2000/svg" width="200" height="200" fill="none"><path fill="#000" d="M0 0h200v200H0z"/><path fill="#fff" d="M145.286 71.403c-.696.54-12.984 7.463-12.984 22.86 0 17.807 15.636 24.107 16.104 24.263-.072.384-2.484 8.628-8.244 17.028-5.136 7.392-10.5 14.772-18.66 14.772s-10.26-4.74-19.68-4.74c-9.18 0-12.445 4.896-19.909 4.896-7.463 0-12.671-6.84-18.66-15.24-6.935-9.864-12.54-25.188-12.54-39.731 0-23.328 15.169-35.7 30.096-35.7 7.933 0 14.544 5.208 19.525 5.208 4.74 0 12.132-5.52 21.156-5.52 3.42 0 15.708.311 23.796 11.904zm-28.08-21.78c3.732-4.428 6.372-10.572 6.372-16.716 0-.852-.072-1.716-.228-2.412-6.072.227-13.296 4.043-17.652 9.095-3.42 3.888-6.612 10.032-6.612 16.26 0 .936.156 1.872.228 2.172a9.397 9.397 0 0 0 1.632.157c5.448 0 12.3-3.648 16.26-8.556z"/></svg>