<svg xmlns="http://www.w3.org/2000/svg" width="200" height="200" fill="none"><path fill="#fff" d="M0 0h200v200H0z"/><path fill="#4285F4" d="M170.007 101.555c0-5.756-.477-9.956-1.508-14.311h-67.063v25.977H140.8c-.793 6.456-5.079 16.178-14.603 22.711l-.133.87 21.204 16.098 1.469.144c13.492-12.212 21.27-30.178 21.27-51.489"/><path fill="#34A853" d="M101.431 170c19.286 0 35.476-6.223 47.302-16.956l-22.54-17.111c-6.032 4.122-14.127 7-24.762 7-18.888 0-34.92-12.211-40.635-29.089l-.837.07-22.049 16.722-.288.786C49.368 154.288 73.495 170 101.43 170z"/><path fill="#FBBC05" d="M60.8 113.844c-1.508-4.355-2.38-9.022-2.38-13.844 0-4.823.872-9.49 2.301-13.845l-.04-.927-22.325-16.991-.73.34c-4.841 9.49-7.619 20.145-7.619 31.423 0 11.278 2.778 21.933 7.619 31.422L60.8 113.844"/><path fill="#EB4335" d="M101.432 57.066c13.412 0 22.46 5.678 27.618 10.423L149.209 48.2C136.829 36.922 120.717 30 101.432 30c-27.937 0-52.064 15.711-63.81 38.578l23.095 17.578c5.794-16.878 21.826-29.09 40.715-29.09"/></svg>