<svg xmlns="http://www.w3.org/2000/svg" width="200" height="200" fill="none"><path fill="#fff" d="M0 0h200v200H0z"/><path fill="#E24329" d="m162.836 86.96-.183-.468-17.694-46.177a4.606 4.606 0 0 0-1.821-2.194 4.734 4.734 0 0 0-5.415.291 4.736 4.736 0 0 0-1.57 2.383l-11.947 36.552H75.828L63.881 40.795a4.643 4.643 0 0 0-1.57-2.39 4.738 4.738 0 0 0-5.416-.29 4.65 4.65 0 0 0-1.82 2.193L37.346 86.465l-.176.467a32.857 32.857 0 0 0 10.898 37.974l.06.047.163.116 26.954 20.185 13.335 10.092 8.123 6.133a5.465 5.465 0 0 0 6.606 0l8.123-6.133 13.335-10.092 27.116-20.307.068-.054a32.872 32.872 0 0 0 10.884-37.934z"/><path fill="#FC6D26" d="m162.836 86.96-.183-.468a59.766 59.766 0 0 0-23.792 10.695L100 126.571a33748.05 33748.05 0 0 0 24.754 18.71l27.116-20.307.068-.054a32.871 32.871 0 0 0 10.898-37.96z"/><path fill="#FCA326" d="m75.246 145.281 13.335 10.092 8.123 6.133a5.466 5.466 0 0 0 6.606 0l8.123-6.133 13.335-10.092s-11.535-8.726-24.768-18.71a18531.829 18531.829 0 0 0-24.754 18.71z"/><path fill="#FC6D26" d="M61.133 97.187a59.695 59.695 0 0 0-23.786-10.722l-.176.467a32.857 32.857 0 0 0 10.898 37.974l.06.047.163.116 26.954 20.185s11.507-8.699 24.754-18.71L61.133 97.187z"/></svg>