<svg xmlns="http://www.w3.org/2000/svg" width="200" height="200" fill="none"><path fill="#101840" d="M0 0h200v200H0z"/><path fill="#fff" d="M147.415 93.636H93.11c-2.086 0-3.823-1.738-3.823-3.823v-6.517c0-2.085 1.737-3.823 3.823-3.823h54.652c2.085 0 3.823 1.738 3.823 3.823v6.517c-.434 2.085-2.085 3.823-4.17 3.823zm-41.272 27.456c2.085 0 3.823-1.737 4.084-3.475V111.1c0-2.085-1.738-3.823-3.824-3.823H51.838c-2.085 0-3.823 1.738-3.823 3.476v6.516c0 2.086 1.738 3.823 3.823 3.823h54.305zm-37.449 10.34a6.823 6.823 0 0 0-6.864 6.864 6.823 6.823 0 0 0 6.864 6.864 6.823 6.823 0 0 0 6.864-6.864c0-3.823-3.128-6.864-6.864-6.864zm61.864-75.68a6.823 6.823 0 0 0-6.864 6.865 6.823 6.823 0 0 0 6.864 6.864 6.823 6.823 0 0 0 6.864-6.864c0-3.736-3.041-6.864-6.864-6.864zm-30.932 86.02c-3.823 0-7.559-.695-11.035-1.738-1.737-.348-3.475.348-4.083 2.085l-2.433 6.517c-.695 1.738.347 3.823 2.433 4.431 4.779 1.738 9.992 2.433 15.118 2.433 22.33 0 41.619-13.381 50.221-32.67.695-1.738 0-4.084-2.085-4.779l-6.517-2.433c-1.737-.695-3.475 0-4.083 1.738-6.604 14.424-20.68 24.416-37.536 24.416zm0-82.544c3.823 0 7.559.695 11.035 1.738 1.738.348 3.475-.348 4.084-2.085l2.433-6.517c.695-1.738-.348-3.823-2.433-4.431-4.779-1.738-9.992-2.433-15.119-2.433-22.33 0-41.62 13.38-50.221 32.67-.695 1.738 0 4.084 2.085 4.779l6.517 2.433c1.738.695 3.475 0 4.084-1.738C68.694 69.22 82.77 59.228 99.626 59.228z"/></svg>